<?xml version="1.0" encoding="utf-8"?>
<!-- Generator: Adobe Illustrator 18.0.0, SVG Export Plug-In . SVG Version: 6.00 Build 0)  -->
<!DOCTYPE svg PUBLIC "-//W3C//DTD SVG 1.1//EN" "http://www.w3.org/Graphics/SVG/1.1/DTD/svg11.dtd">
<svg version="1.1" id="图层_1" xmlns="http://www.w3.org/2000/svg" xmlns:xlink="http://www.w3.org/1999/xlink" x="0px" y="0px"
	 viewBox="0 0 100.3 100.9" enable-background="new 0 0 100.3 100.9" xml:space="preserve">
<g>
	<polygon fill="#DA5C0F" points="44.2,35.2 46.5,35.2 46.5,32.4 42.7,32.4 	"/>
	<polygon fill="#B74D21" points="45.5,34.4 46.5,35.2 46.5,34.4 	"/>
	<rect x="45.5" y="31.7" fill="#ED7123" width="5" height="2.8"/>
</g>
<path fill="#434C53" d="M50.3,38.4c0,0.1,0.1,0.3,0.3,0.3l0,0c0.1,0,0.3-0.1,0.3-0.3v-7.8c0-0.1-0.1-0.3-0.3-0.3l0,0
	c-0.1,0-0.3,0.1-0.3,0.3V38.4z"/>
<path opacity="0.2" fill="#040000" d="M50.5,30.3C50.5,30.3,50.5,30.3,50.5,30.3l0,7.4h-0.3v0.6c0,0.1,0.1,0.3,0.3,0.3
	c0.1,0,0.3-0.1,0.3-0.3v-7.8C50.8,30.4,50.7,30.3,50.5,30.3z"/>
<g>
	<rect x="84.9" y="73.7" fill="#8C5F2D" width="0.8" height="5.3"/>
	<path fill="#73B02C" d="M88.2,72.8c0,1.8-1.3,3.3-2.9,3.3c-1.6,0-2.9-1.5-2.9-3.3c0-1.8,1.6-6,2.9-6C86.6,66.8,88.2,71,88.2,72.8z"
		/>
	<path opacity="0.7" fill="#86C129" d="M86.4,72.8c0,1.7-0.5,3.1-1.1,3.1c-0.6,0-1.1-1.4-1.1-3.1c0-1.7,0.6-5.7,1.1-5.7
		C85.8,67.1,86.4,71.1,86.4,72.8z"/>
</g>
<g>
	<rect x="90.9" y="75.6" fill="#8C5F2D" width="0.7" height="3.5"/>
	<path fill="#638B33" d="M93.9,75c0,1.2-1.2,2.2-2.6,2.2s-2.6-1-2.6-2.2c0-1.2,1.5-2.6,2.6-2.6C92.4,72.3,93.9,73.8,93.9,75z"/>
	<path opacity="0.7" fill="#7AA92C" d="M92.3,75c0,1.1-0.5,2-1,2c-0.6,0-1-0.9-1-2s0.6-2.4,1-2.4S92.3,73.9,92.3,75z"/>
</g>
<g>
	<rect x="7.7" y="73.6" fill="#8C5F2D" width="0.8" height="5.2"/>
	<path fill="#638B33" d="M11,73c0,1.3-1.3,2.4-2.9,2.4S5.2,74.3,5.2,73c0-1.3,1.6-2.9,2.9-2.9S11,71.7,11,73z"/>
	<path opacity="0.7" fill="#7AA92C" d="M9.2,73c0,1.2-0.5,2.2-1.1,2.2S7,74.2,7,73c0-1.2,0.6-2.7,1.1-2.7C8.6,70.3,9.2,71.7,9.2,73z
		"/>
</g>
<g>
	<path fill="#317537" d="M11.9,78.2c0,0.7-0.8,1.2-1.7,1.2s-1.7-0.5-1.7-1.2c0-0.7,1-1.4,1.7-1.4C10.9,76.8,11.9,77.6,11.9,78.2z"/>
	<path opacity="0.4" fill="#419638" d="M10.8,78.2c0,0.6-0.3,1.1-0.7,1.1c-0.4,0-0.7-0.5-0.7-1.1c0-0.6,0.4-1.3,0.7-1.3
		C10.4,76.9,10.8,77.6,10.8,78.2z"/>
</g>
<g>
	<path fill="#317537" d="M18.6,78.2c0,0.7-0.8,1.2-1.7,1.2c-1,0-1.7-0.5-1.7-1.2c0-0.7,1-1.4,1.7-1.4C17.6,76.8,18.6,77.6,18.6,78.2
		z"/>
	<path opacity="0.4" fill="#419638" d="M17.5,78.2c0,0.6-0.3,1.1-0.7,1.1c-0.4,0-0.7-0.5-0.7-1.1c0-0.6,0.4-1.3,0.7-1.3
		C17.2,76.9,17.5,77.6,17.5,78.2z"/>
</g>
<g>
	<path fill="#317537" d="M8,78.5c0,0.5-0.6,0.9-1.4,0.9c-0.8,0-1.4-0.4-1.4-0.9c0-0.5,0.8-1.1,1.4-1.1C7.3,77.4,8,78,8,78.5z"/>
	<path opacity="0.4" fill="#419638" d="M7.2,78.5c0,0.5-0.2,0.9-0.5,0.9c-0.3,0-0.5-0.4-0.5-0.9c0-0.5,0.3-1,0.5-1
		C6.9,77.5,7.2,78,7.2,78.5z"/>
</g>
<g>
	<path fill="#317537" d="M83.6,78c0,0.8-0.9,1.4-2.1,1.4c-1.2,0-2.1-0.6-2.1-1.4c0-0.8,1.2-1.7,2.1-1.7C82.4,76.2,83.6,77.2,83.6,78
		z"/>
	<path opacity="0.4" fill="#419638" d="M82.3,78c0,0.7-0.4,1.4-0.8,1.4c-0.5,0-0.8-0.6-0.8-1.4c0-0.7,0.5-1.6,0.8-1.6
		C81.9,76.4,82.3,77.2,82.3,78z"/>
</g>
<g>
	<path fill="#317537" d="M90,78.6c0,0.5-0.5,0.8-1.2,0.8s-1.2-0.4-1.2-0.8c0-0.5,0.7-1,1.2-1C89.3,77.6,90,78.1,90,78.6z"/>
	<path opacity="0.4" fill="#419638" d="M89.2,78.6c0,0.4-0.2,0.8-0.5,0.8c-0.3,0-0.5-0.3-0.5-0.8c0-0.4,0.3-0.9,0.5-0.9
		S89.2,78.1,89.2,78.6z"/>
</g>
<g>
	<path fill="#317537" d="M88.4,78.4c0,0.6-0.7,1.1-1.6,1.1s-1.6-0.5-1.6-1.1s0.9-1.3,1.6-1.3S88.4,77.8,88.4,78.4z"/>
	<path opacity="0.4" fill="#419638" d="M87.4,78.4c0,0.6-0.3,1-0.6,1s-0.6-0.5-0.6-1c0-0.6,0.4-1.2,0.6-1.2S87.4,77.9,87.4,78.4z"/>
</g>
<g>
	<path fill="#317537" d="M95.4,78.6c0,0.5-0.6,0.9-1.4,0.9c-0.8,0-1.4-0.4-1.4-0.9s0.8-1.1,1.4-1.1S95.4,78.1,95.4,78.6z"/>
	<path opacity="0.4" fill="#419638" d="M94.5,78.6c0,0.5-0.2,0.9-0.5,0.9c-0.3,0-0.5-0.4-0.5-0.9s0.3-1.1,0.5-1.1
		C94.2,77.5,94.5,78.1,94.5,78.6z"/>
</g>
<g>
	<path fill="#317537" d="M13.6,78.4c0,0.4-0.5,0.7-1.1,0.7c-0.6,0-1.1-0.3-1.1-0.7c0-0.4,0.6-0.9,1.1-0.9C13,77.5,13.6,78,13.6,78.4
		z"/>
	<path opacity="0.4" fill="#419638" d="M12.9,78.4c0,0.4-0.2,0.7-0.4,0.7c-0.2,0-0.4-0.3-0.4-0.7c0-0.4,0.2-0.8,0.4-0.8
		C12.7,77.6,12.9,78,12.9,78.4z"/>
</g>
<g>
	<rect x="15" y="73.8" fill="#8C5F2D" width="0.7" height="5.2"/>
	<path fill="#73B02C" d="M18.1,72.9c0,1.8-1.2,3.2-2.7,3.2s-2.7-1.4-2.7-3.2c0-1.8,1.5-5.8,2.7-5.8C16.6,67.1,18.1,71.1,18.1,72.9z"
		/>
	<path opacity="0.7" fill="#86C129" d="M16.4,72.9c0,1.7-0.5,3-1.1,3c-0.6,0-1.1-1.4-1.1-3c0-1.7,0.6-5.5,1.1-5.5
		C15.9,67.4,16.4,71.2,16.4,72.9z"/>
</g>
<rect x="4.1" y="78.6" fill="#8CB823" width="92.9" height="1.5"/>
<rect x="22.6" y="60.3" fill="#C3521C" width="55.9" height="15"/>
<rect x="22.6" y="60.8" opacity="0.2" fill="#040000" width="55.9" height="2.1"/>
<rect x="20.2" y="61" fill="#764E2F" width="60.7" height="1.5"/>
<polygon fill="#D38D17" points="76.7,50.8 50.5,50.8 24.4,50.8 20.2,61 50.5,61 80.9,61 "/>
<g opacity="0.1">
	<g>
		<g>
			<path fill="#764E2F" d="M25.9,52.6c0.8,0,1.5-0.8,1.5-1.8h-3C24.4,51.8,25.1,52.6,25.9,52.6z"/>
			<path fill="#764E2F" d="M29.3,52.6c0.8,0,1.5-0.8,1.5-1.8h-3C27.8,51.8,28.4,52.6,29.3,52.6z"/>
			<path fill="#764E2F" d="M32.6,52.6c0.8,0,1.5-0.8,1.5-1.8h-3C31.1,51.8,31.8,52.6,32.6,52.6z"/>
			<path fill="#764E2F" d="M35.9,52.6c0.8,0,1.5-0.8,1.5-1.8h-3C34.4,51.8,35.1,52.6,35.9,52.6z"/>
			<path fill="#764E2F" d="M39.2,52.6c0.8,0,1.5-0.8,1.5-1.8h-3C37.7,51.8,38.4,52.6,39.2,52.6z"/>
			<path fill="#764E2F" d="M42.6,52.6c0.8,0,1.5-0.8,1.5-1.8h-3C41.1,51.8,41.7,52.6,42.6,52.6z"/>
		</g>
		<g>
			<path fill="#764E2F" d="M24.9,55.4c0.9,0,1.6-0.8,1.6-1.8h-3.1C23.3,54.6,24,55.4,24.9,55.4z"/>
			<path fill="#764E2F" d="M28.3,55.4c0.9,0,1.6-0.8,1.6-1.8h-3.1C26.7,54.6,27.4,55.4,28.3,55.4z"/>
			<path fill="#764E2F" d="M31.7,55.4c0.9,0,1.6-0.8,1.6-1.8h-3.1C30.2,54.6,30.9,55.4,31.7,55.4z"/>
			<path fill="#764E2F" d="M35.2,55.4c0.9,0,1.6-0.8,1.6-1.8h-3.1C33.6,54.6,34.3,55.4,35.2,55.4z"/>
			<path fill="#764E2F" d="M38.6,55.4c0.9,0,1.6-0.8,1.6-1.8h-3.1C37.1,54.6,37.8,55.4,38.6,55.4z"/>
			<path fill="#764E2F" d="M42.1,55.4c0.9,0,1.6-0.8,1.6-1.8h-3.1C40.5,54.6,41.2,55.4,42.1,55.4z"/>
		</g>
		<g>
			<path fill="#764E2F" d="M23.8,58.2c0.9,0,1.6-0.9,1.6-1.9h-3.3C22.1,57.3,22.9,58.2,23.8,58.2z"/>
			<path fill="#764E2F" d="M27.4,58.2c0.9,0,1.6-0.9,1.6-1.9h-3.3C25.8,57.3,26.5,58.2,27.4,58.2z"/>
			<path fill="#764E2F" d="M31,58.2c0.9,0,1.6-0.9,1.6-1.9h-3.3C29.4,57.3,30.1,58.2,31,58.2z"/>
			<path fill="#764E2F" d="M34.7,58.2c0.9,0,1.6-0.9,1.6-1.9H33C33,57.3,33.8,58.2,34.7,58.2z"/>
			<path fill="#764E2F" d="M38.3,58.2c0.9,0,1.6-0.9,1.6-1.9h-3.3C36.7,57.3,37.4,58.2,38.3,58.2z"/>
			<path fill="#764E2F" d="M41.9,58.2c0.9,0,1.6-0.9,1.6-1.9h-3.3C40.3,57.3,41,58.2,41.9,58.2z"/>
		</g>
		<g>
			<path fill="#764E2F" d="M22.8,61c1,0,1.7-0.9,1.7-2H21C21,60.1,21.8,61,22.8,61z"/>
			<path fill="#764E2F" d="M26.6,61c1,0,1.7-0.9,1.7-2h-3.5C24.8,60.1,25.6,61,26.6,61z"/>
			<path fill="#764E2F" d="M30.4,61c1,0,1.7-0.9,1.7-2h-3.5C28.7,60.1,29.4,61,30.4,61z"/>
			<path fill="#764E2F" d="M34.2,61c1,0,1.7-0.9,1.7-2h-3.5C32.5,60.1,33.3,61,34.2,61z"/>
			<path fill="#764E2F" d="M38,61c1,0,1.7-0.9,1.7-2h-3.5C36.3,60.1,37.1,61,38,61z"/>
			<path fill="#764E2F" d="M41.9,61c1,0,1.7-0.9,1.7-2h-3.5C40.1,60.1,40.9,61,41.9,61z"/>
		</g>
	</g>
	<g>
		<g>
			<path fill="#764E2F" d="M75.2,52.6c-0.8,0-1.5-0.8-1.5-1.8h3C76.7,51.8,76,52.6,75.2,52.6z"/>
			<path fill="#764E2F" d="M71.8,52.6c-0.8,0-1.5-0.8-1.5-1.8h3C73.3,51.8,72.7,52.6,71.8,52.6z"/>
			<path fill="#764E2F" d="M68.5,52.6c-0.8,0-1.5-0.8-1.5-1.8h3C70,51.8,69.3,52.6,68.5,52.6z"/>
			<path fill="#764E2F" d="M65.2,52.6c-0.8,0-1.5-0.8-1.5-1.8h3C66.7,51.8,66,52.6,65.2,52.6z"/>
			<path fill="#764E2F" d="M61.9,52.6c-0.8,0-1.5-0.8-1.5-1.8h3C63.4,51.8,62.7,52.6,61.9,52.6z"/>
			<path fill="#764E2F" d="M58.5,52.6c-0.8,0-1.5-0.8-1.5-1.8h3C60,51.8,59.4,52.6,58.5,52.6z"/>
		</g>
		<g>
			<path fill="#764E2F" d="M76.2,55.4c-0.9,0-1.6-0.8-1.6-1.8h3.1C77.8,54.6,77.1,55.4,76.2,55.4z"/>
			<path fill="#764E2F" d="M72.8,55.4c-0.9,0-1.6-0.8-1.6-1.8h3.1C74.4,54.6,73.7,55.4,72.8,55.4z"/>
			<path fill="#764E2F" d="M69.4,55.4c-0.9,0-1.6-0.8-1.6-1.8h3.1C70.9,54.6,70.2,55.4,69.4,55.4z"/>
			<path fill="#764E2F" d="M65.9,55.4c-0.9,0-1.6-0.8-1.6-1.8h3.1C67.5,54.6,66.8,55.4,65.9,55.4z"/>
			<path fill="#764E2F" d="M62.5,55.4c-0.9,0-1.6-0.8-1.6-1.8H64C64,54.6,63.3,55.4,62.5,55.4z"/>
			<path fill="#764E2F" d="M59,55.4c-0.9,0-1.6-0.8-1.6-1.8h3.1C60.6,54.6,59.9,55.4,59,55.4z"/>
		</g>
		<g>
			<path fill="#764E2F" d="M77.3,58.2c-0.9,0-1.6-0.9-1.6-1.9H79C79,57.3,78.2,58.2,77.3,58.2z"/>
			<path fill="#764E2F" d="M73.7,58.2c-0.9,0-1.6-0.9-1.6-1.9h3.3C75.3,57.3,74.6,58.2,73.7,58.2z"/>
			<path fill="#764E2F" d="M70.1,58.2c-0.9,0-1.6-0.9-1.6-1.9h3.3C71.7,57.3,71,58.2,70.1,58.2z"/>
			<path fill="#764E2F" d="M66.4,58.2c-0.9,0-1.6-0.9-1.6-1.9h3.3C68.1,57.3,67.3,58.2,66.4,58.2z"/>
			<path fill="#764E2F" d="M62.8,58.2c-0.9,0-1.6-0.9-1.6-1.9h3.3C64.4,57.3,63.7,58.2,62.8,58.2z"/>
			<path fill="#764E2F" d="M59.2,58.2c-0.9,0-1.6-0.9-1.6-1.9h3.3C60.8,57.3,60.1,58.2,59.2,58.2z"/>
		</g>
		<g>
			<path fill="#764E2F" d="M78.3,61c-1,0-1.7-0.9-1.7-2h3.5C80.1,60.1,79.3,61,78.3,61z"/>
			<path fill="#764E2F" d="M74.5,61c-1,0-1.7-0.9-1.7-2h3.5C76.3,60.1,75.5,61,74.5,61z"/>
			<path fill="#764E2F" d="M70.7,61c-1,0-1.7-0.9-1.7-2h3.5C72.4,60.1,71.7,61,70.7,61z"/>
			<path fill="#764E2F" d="M66.9,61c-1,0-1.7-0.9-1.7-2h3.5C68.6,60.1,67.8,61,66.9,61z"/>
			<path fill="#764E2F" d="M63.1,61c-1,0-1.7-0.9-1.7-2h3.5C64.8,60.1,64,61,63.1,61z"/>
			<path fill="#764E2F" d="M59.2,61c-1,0-1.7-0.9-1.7-2H61C61,60.1,60.2,61,59.2,61z"/>
		</g>
	</g>
</g>
<g>
	<g>
		<circle fill="#764E2F" cx="27.5" cy="49.2" r="1.2"/>
		<circle fill="#764E2F" cx="32.1" cy="49.2" r="1.2"/>
		<circle fill="#764E2F" cx="36.7" cy="49.2" r="1.2"/>
		<circle fill="#764E2F" cx="41.3" cy="49.2" r="1.2"/>
	</g>
	<g>
		<circle fill="#764E2F" cx="59.8" cy="49.2" r="1.2"/>
		<circle fill="#764E2F" cx="64.4" cy="49.2" r="1.2"/>
		<circle fill="#764E2F" cx="69" cy="49.2" r="1.2"/>
		<circle fill="#764E2F" cx="73.6" cy="49.2" r="1.2"/>
	</g>
</g>
<path fill="#D3DAE5" d="M19.7,76.7h61.7c0-0.8-0.6-1.4-1.4-1.4H21.1C20.3,75.3,19.7,75.9,19.7,76.7z"/>
<path fill="#B5BDC7" d="M19.7,76.7C19.7,76.7,19.7,76.7,19.7,76.7l0,3.2c0,0.7,0.6,1.2,1.4,1.2H80c0.8,0,1.4-0.6,1.4-1.2v-3.2
	c0,0,0,0,0,0H19.7z"/>
<path fill="#F0BE1B" d="M19.7,78.6C19.7,78.7,19.7,78.7,19.7,78.6l0,1.8c0,0.4,0.6,0.7,1.4,0.7H80c0.8,0,1.4-0.3,1.4-0.7v-1.8
	c0,0,0,0,0,0H19.7z"/>
<path fill="#687383" d="M98,80.5c0,0.6-0.5,1.1-1.1,1.1H4.2c-0.6,0-1.1-0.5-1.1-1.1l0,0c0-0.6,0.5-1.1,1.1-1.1h92.7
	C97.5,79.4,98,79.9,98,80.5L98,80.5z"/>
<g>
	<rect x="41.2" y="75.7" fill="#8591A4" width="18.7" height="0.9"/>
	<rect x="41.2" y="75.3" fill="#A6B5D0" width="18.7" height="0.4"/>
</g>
<g>
	<rect x="38" y="77.1" fill="#8591A4" width="25.2" height="0.9"/>
	<rect x="38" y="76.7" fill="#A6B5D0" width="25.2" height="0.4"/>
</g>
<g>
	<rect x="34.2" y="78.5" fill="#8591A4" width="32.7" height="0.9"/>
	<rect x="34.2" y="78" fill="#A6B5D0" width="32.7" height="0.4"/>
</g>
<rect x="24.4" y="49.2" fill="#764E2F" width="52.3" height="1.7"/>
<rect x="43.9" y="40.7" fill="#DA5C0F" width="13.2" height="13.7"/>
<rect x="43.9" y="40.7" opacity="0.1" fill="#FFFFFF" width="6.6" height="13.7"/>
<polygon fill="#DA5C0F" points="50.5,51.2 41.2,55.9 41.2,75.3 50.5,75.3 59.9,75.3 59.9,55.9 "/>
<polygon opacity="0.1" fill="#FFFFFF" points="50.5,51.2 41.2,55.9 41.2,75.3 50.5,75.3 "/>
<g>
	<g>
		<g>
			<rect x="24.2" y="63.7" fill="#D3A56F" width="3.7" height="4.1"/>
			<rect x="24.5" y="64.1" fill="#FFFFFF" width="3" height="3.7"/>
			<path fill="#F0BE1B" d="M28.6,67.9c0,0.1-0.1,0.2-0.2,0.2h-4.7c-0.1,0-0.2-0.1-0.2-0.2l0,0c0-0.1,0.1-0.2,0.2-0.2h4.7
				C28.5,67.7,28.6,67.8,28.6,67.9L28.6,67.9z"/>
		</g>
		<g>
			<rect x="30" y="63.7" fill="#D3A56F" width="3.7" height="4.1"/>
			<rect x="30.4" y="64.1" fill="#FFFFFF" width="3" height="3.7"/>
			<path fill="#F0BE1B" d="M34.4,67.9c0,0.1-0.1,0.2-0.2,0.2h-4.7c-0.1,0-0.2-0.1-0.2-0.2l0,0c0-0.1,0.1-0.2,0.2-0.2h4.7
				C34.3,67.7,34.4,67.8,34.4,67.9L34.4,67.9z"/>
		</g>
		<g>
			<rect x="35.8" y="63.7" fill="#D3A56F" width="3.7" height="4.1"/>
			<rect x="36.2" y="64.1" fill="#FFFFFF" width="3" height="3.7"/>
			<path fill="#F0BE1B" d="M40.2,67.9c0,0.1-0.1,0.2-0.2,0.2h-4.7c-0.1,0-0.2-0.1-0.2-0.2l0,0c0-0.1,0.1-0.2,0.2-0.2h4.7
				C40.2,67.7,40.2,67.8,40.2,67.9L40.2,67.9z"/>
		</g>
	</g>
	<g>
		<g>
			<rect x="24.2" y="69.6" fill="#D3A56F" width="3.7" height="4.1"/>
			<rect x="24.5" y="70" fill="#FFFFFF" width="3" height="3.7"/>
			<path fill="#F0BE1B" d="M28.6,73.7c0,0.1-0.1,0.2-0.2,0.2h-4.7c-0.1,0-0.2-0.1-0.2-0.2l0,0c0-0.1,0.1-0.2,0.2-0.2h4.7
				C28.5,73.6,28.6,73.6,28.6,73.7L28.6,73.7z"/>
		</g>
		<g>
			<rect x="30" y="69.6" fill="#D3A56F" width="3.7" height="4.1"/>
			<rect x="30.4" y="70" fill="#FFFFFF" width="3" height="3.7"/>
			<path fill="#F0BE1B" d="M34.4,73.7c0,0.1-0.1,0.2-0.2,0.2h-4.7c-0.1,0-0.2-0.1-0.2-0.2l0,0c0-0.1,0.1-0.2,0.2-0.2h4.7
				C34.3,73.6,34.4,73.6,34.4,73.7L34.4,73.7z"/>
		</g>
		<g>
			<rect x="35.8" y="69.6" fill="#D3A56F" width="3.7" height="4.1"/>
			<rect x="36.2" y="70" fill="#FFFFFF" width="3" height="3.7"/>
			<path fill="#F0BE1B" d="M40.2,73.7c0,0.1-0.1,0.2-0.2,0.2h-4.7c-0.1,0-0.2-0.1-0.2-0.2l0,0c0-0.1,0.1-0.2,0.2-0.2h4.7
				C40.2,73.6,40.2,73.6,40.2,73.7L40.2,73.7z"/>
		</g>
	</g>
</g>
<g>
	<g>
		<g>
			<rect x="61.5" y="63.7" fill="#D3A56F" width="3.7" height="4.1"/>
			<rect x="61.9" y="64.1" fill="#FFFFFF" width="3" height="3.7"/>
			<path fill="#F0BE1B" d="M65.9,67.9c0,0.1-0.1,0.2-0.2,0.2H61c-0.1,0-0.2-0.1-0.2-0.2l0,0c0-0.1,0.1-0.2,0.2-0.2h4.7
				C65.8,67.7,65.9,67.8,65.9,67.9L65.9,67.9z"/>
		</g>
		<g>
			<rect x="67.4" y="63.7" fill="#D3A56F" width="3.7" height="4.1"/>
			<rect x="67.7" y="64.1" fill="#FFFFFF" width="3" height="3.7"/>
			<path fill="#F0BE1B" d="M71.8,67.9c0,0.1-0.1,0.2-0.2,0.2h-4.7c-0.1,0-0.2-0.1-0.2-0.2l0,0c0-0.1,0.1-0.2,0.2-0.2h4.7
				C71.7,67.7,71.8,67.8,71.8,67.9L71.8,67.9z"/>
		</g>
		<g>
			<rect x="73.2" y="63.7" fill="#D3A56F" width="3.7" height="4.1"/>
			<rect x="73.5" y="64.1" fill="#FFFFFF" width="3" height="3.7"/>
			<path fill="#F0BE1B" d="M77.6,67.9c0,0.1-0.1,0.2-0.2,0.2h-4.7c-0.1,0-0.2-0.1-0.2-0.2l0,0c0-0.1,0.1-0.2,0.2-0.2h4.7
				C77.5,67.7,77.6,67.8,77.6,67.9L77.6,67.9z"/>
		</g>
	</g>
	<g>
		<g>
			<rect x="61.5" y="69.6" fill="#D3A56F" width="3.7" height="4.1"/>
			<rect x="61.9" y="70" fill="#FFFFFF" width="3" height="3.7"/>
			<path fill="#F0BE1B" d="M65.9,73.7c0,0.1-0.1,0.2-0.2,0.2H61c-0.1,0-0.2-0.1-0.2-0.2l0,0c0-0.1,0.1-0.2,0.2-0.2h4.7
				C65.8,73.6,65.9,73.6,65.9,73.7L65.9,73.7z"/>
		</g>
		<g>
			<rect x="67.4" y="69.6" fill="#D3A56F" width="3.7" height="4.1"/>
			<rect x="67.7" y="70" fill="#FFFFFF" width="3" height="3.7"/>
			<path fill="#F0BE1B" d="M71.8,73.7c0,0.1-0.1,0.2-0.2,0.2h-4.7c-0.1,0-0.2-0.1-0.2-0.2l0,0c0-0.1,0.1-0.2,0.2-0.2h4.7
				C71.7,73.6,71.8,73.6,71.8,73.7L71.8,73.7z"/>
		</g>
		<g>
			<rect x="73.2" y="69.6" fill="#D3A56F" width="3.7" height="4.1"/>
			<rect x="73.5" y="70" fill="#FFFFFF" width="3" height="3.7"/>
			<path fill="#F0BE1B" d="M77.6,73.7c0,0.1-0.1,0.2-0.2,0.2h-4.7c-0.1,0-0.2-0.1-0.2-0.2l0,0c0-0.1,0.1-0.2,0.2-0.2h4.7
				C77.5,73.6,77.6,73.6,77.6,73.7L77.6,73.7z"/>
		</g>
	</g>
</g>
<rect x="43.5" y="39.8" fill="#764E2F" width="14.1" height="1"/>
<rect x="50.5" y="39.8" opacity="0.2" fill="#040000" width="7.1" height="1"/>
<polygon fill="#764E2F" points="50.5,35.8 43.4,39 50.5,39 57.7,39 "/>
<polygon opacity="0.1" fill="#FFFFFF" points="50.5,35.8 43.4,39 50.5,39 "/>
<path fill="#F0BE1B" d="M58.6,39.4c0,0.2-0.2,0.4-0.4,0.4H42.9c-0.2,0-0.4-0.2-0.4-0.4l0,0c0-0.2,0.2-0.4,0.4-0.4h15.2
	C58.4,39,58.6,39.1,58.6,39.4L58.6,39.4z"/>
<rect x="45.4" y="66.9" fill="#F0BE1B" width="10.2" height="8.4"/>
<g>
	<g>
		<g>
			<rect x="48.7" y="56.9" fill="#D3A56F" width="3.6" height="3.3"/>
			<rect x="49.1" y="57.3" fill="#FFFFFF" width="2.8" height="2.6"/>
		</g>
		<g>
			<g>
				<rect x="43.7" y="56.9" fill="#D3A56F" width="3.6" height="3.3"/>
				<rect x="44.1" y="57.3" fill="#FFFFFF" width="2.8" height="2.6"/>
			</g>
			<g>
				<rect x="53.8" y="56.9" fill="#D3A56F" width="3.6" height="3.3"/>
				<rect x="54.2" y="57.3" fill="#FFFFFF" width="2.8" height="2.6"/>
			</g>
		</g>
	</g>
	<g>
		<g>
			<rect x="48.7" y="62.1" fill="#D3A56F" width="3.6" height="3.3"/>
			<rect x="49.1" y="62.4" fill="#FFFFFF" width="2.8" height="2.6"/>
		</g>
		<g>
			<g>
				<rect x="43.7" y="62.1" fill="#D3A56F" width="3.6" height="3.3"/>
				<rect x="44.1" y="62.4" fill="#FFFFFF" width="2.8" height="2.6"/>
			</g>
			<g>
				<rect x="53.8" y="62.1" fill="#D3A56F" width="3.6" height="3.3"/>
				<rect x="54.2" y="62.4" fill="#FFFFFF" width="2.8" height="2.6"/>
			</g>
		</g>
	</g>
</g>
<circle opacity="0.4" fill="#F0BE1B" cx="50.5" cy="54.3" r="1.5"/>
<rect x="46.1" y="67.5" fill="#434C53" width="8.9" height="7.8"/>
<rect x="50.1" y="67" fill="#F0BE1B" width="0.9" height="8.3"/>
<g>
	<circle fill="#FFFFFF" cx="48.2" cy="70.4" r="1.1"/>
	<circle fill="#FFFFFF" cx="52.9" cy="70.4" r="1.1"/>
</g>
<path fill="#764E2F" d="M66.9,58.8l-16-8.7C50.8,50,50.7,50,50.6,50c0,0,0,0-0.1,0c0,0,0,0-0.1,0c-0.1,0-0.2,0-0.3,0.1l-16,8.7
	c-0.4,0.2-0.5,0.7-0.3,1.1c0.2,0.4,0.7,0.5,1.1,0.3l15.6-8.5l15.6,8.5c0.4,0.2,0.9,0.1,1.1-0.3C67.5,59.5,67.3,59,66.9,58.8z"/>
<path fill="#F0BE1B" d="M55.7,52.2l-5-2.7c0,0-0.1,0-0.1,0c0,0,0,0,0,0c0,0,0,0,0,0c0,0-0.1,0-0.1,0l-5,2.7
	c-0.1,0.1-0.2,0.2-0.1,0.3c0.1,0.1,0.2,0.2,0.3,0.1l4.9-2.6l4.9,2.6c0.1,0.1,0.3,0,0.3-0.1C55.8,52.4,55.8,52.2,55.7,52.2z"/>
<g>
	<circle fill="#F0BE1B" cx="50.5" cy="45" r="3.4"/>
	<g>
		<circle fill="#FFFFFF" cx="50.5" cy="45" r="2.7"/>
		<g>
			<polygon fill="#434C53" points="51.6,43.5 51.7,43.5 51.6,43.5 51.7,43.5 51.6,43.5 50.8,45.1 50.6,45 50.6,45 50.4,44.8 			"/>
			<circle fill="#434C53" cx="50.5" cy="45" r="0.5"/>
			<polygon fill="#434C53" points="48.2,45.1 48.1,45.1 48.2,45.1 48.1,45.1 48.2,45.1 50.6,44.7 50.6,45 50.6,45 50.6,45.2 			"/>
		</g>
	</g>
</g>
<path opacity="0.2" fill="#040000" d="M66.2,60.2c0.4,0.2,0.9,0.1,1.1-0.3c0.2-0.4,0.1-0.9-0.3-1.1l-16-8.7C50.8,50,50.7,50,50.6,50
	c0,0,0,0-0.1,0v1.7L66.2,60.2z"/>
<path opacity="0.1" fill="#040000" d="M50.5,41.6C50.5,41.6,50.5,41.6,50.5,41.6l0,6.8c0,0,0,0,0,0c1.9,0,3.4-1.5,3.4-3.4
	S52.4,41.6,50.5,41.6z"/>
<rect x="50.5" y="66.9" opacity="0.2" fill="#040000" width="5.1" height="8.4"/>
<g>
	<rect x="25.9" y="64.1" opacity="0.4" fill="#9FD7E0" width="1.6" height="3.6"/>
	<rect x="31.8" y="64.1" opacity="0.4" fill="#9FD7E0" width="1.6" height="3.6"/>
	<rect x="37.6" y="64.1" opacity="0.4" fill="#9FD7E0" width="1.6" height="3.6"/>
	<rect x="25.9" y="70" opacity="0.4" fill="#9FD7E0" width="1.6" height="3.6"/>
	<rect x="31.8" y="70" opacity="0.4" fill="#9FD7E0" width="1.6" height="3.6"/>
	<rect x="37.6" y="70" opacity="0.4" fill="#9FD7E0" width="1.6" height="3.6"/>
</g>
<g>
	<rect x="63.3" y="64.1" opacity="0.4" fill="#9FD7E0" width="1.6" height="3.6"/>
	<rect x="69.1" y="64.1" opacity="0.4" fill="#9FD7E0" width="1.6" height="3.6"/>
	<rect x="75" y="64.1" opacity="0.4" fill="#9FD7E0" width="1.6" height="3.6"/>
	<rect x="63.3" y="70" opacity="0.4" fill="#9FD7E0" width="1.6" height="3.6"/>
	<rect x="69.1" y="70" opacity="0.4" fill="#9FD7E0" width="1.6" height="3.6"/>
	<rect x="75" y="70" opacity="0.4" fill="#9FD7E0" width="1.6" height="3.6"/>
</g>
<rect x="45.5" y="57.3" opacity="0.6" fill="#D4DBAF" width="1.4" height="2.6"/>
<rect x="50.5" y="57.3" opacity="0.6" fill="#D4DBAF" width="1.4" height="2.6"/>
<rect x="55.6" y="57.3" opacity="0.6" fill="#D4DBAF" width="1.4" height="2.6"/>
<rect x="45.5" y="62.4" opacity="0.6" fill="#D4DBAF" width="1.4" height="2.6"/>
<rect x="50.5" y="62.4" opacity="0.6" fill="#D4DBAF" width="1.4" height="2.6"/>
<rect x="55.6" y="62.4" opacity="0.6" fill="#D4DBAF" width="1.4" height="2.6"/>
<circle fill="#F0BE1B" cx="50.5" cy="30.3" r="1"/>
<path opacity="0.3" fill="#FFFFFF" d="M50.5,29.3c-0.6,0-1,0.5-1,1c0,0.6,0.5,1,1,1V29.3z"/>
<g id="图层_2">
</g>
</svg>
